<svg width="28" height="28" viewBox="0 0 28 28" fill="none" xmlns="http://www.w3.org/2000/svg">
<path d="M13.9999 23.3333C14.3265 23.3333 14.6417 23.4532 14.8858 23.6702C15.1298 23.8873 15.2857 24.1863 15.3239 24.5106L15.3333 24.6666V26C15.3329 26.3398 15.2028 26.6667 14.9695 26.9138C14.7362 27.1609 14.4173 27.3096 14.0781 27.3295C13.7388 27.3494 13.4048 27.2391 13.1442 27.0209C12.8836 26.8028 12.7161 26.4934 12.6759 26.156L12.6666 26V24.6666C12.6666 24.313 12.8071 23.9739 13.0571 23.7238C13.3072 23.4738 13.6463 23.3333 13.9999 23.3333ZM22.4173 20.5466L22.5426 20.6573L23.4759 21.5906C23.7151 21.8306 23.8539 22.1525 23.8643 22.4911C23.8746 22.8297 23.7557 23.1596 23.5316 23.4137C23.3076 23.6678 22.9952 23.827 22.658 23.8592C22.3207 23.8913 21.9839 23.7938 21.7159 23.5866L21.5906 23.476L20.6573 22.5426C20.4272 22.3129 20.289 22.0071 20.2686 21.6826C20.2482 21.3582 20.347 21.0374 20.5465 20.7807C20.7461 20.524 21.0325 20.3491 21.352 20.2888C21.6714 20.2285 22.0019 20.287 22.2813 20.4533L22.4173 20.5466ZM7.34261 20.6573C7.57218 20.8869 7.71009 21.1924 7.73047 21.5164C7.75084 21.8404 7.65228 22.1608 7.45328 22.4173L7.34261 22.5426L6.40928 23.476C6.16934 23.7151 5.84737 23.8539 5.50877 23.8643C5.17017 23.8746 4.84033 23.7557 4.58624 23.5316C4.33216 23.3076 4.17287 22.9952 4.14075 22.658C4.10862 22.3208 4.20606 21.9839 4.41328 21.716L4.52395 21.5906L5.45728 20.6573C5.70732 20.4073 6.0464 20.2669 6.39995 20.2669C6.7535 20.2669 7.09258 20.4073 7.34261 20.6573ZM3.33328 12.6666C3.67312 12.667 3.99999 12.7971 4.24711 13.0304C4.49422 13.2637 4.64293 13.5826 4.66284 13.9218C4.68276 14.2611 4.57238 14.5951 4.35426 14.8557C4.13614 15.1163 3.82674 15.2838 3.48928 15.324L3.33328 15.3333H1.99995C1.66011 15.3329 1.33324 15.2028 1.08612 14.9695C0.839008 14.7362 0.6903 14.4174 0.670384 14.0781C0.650468 13.7388 0.760846 13.4048 0.978967 13.1442C1.19709 12.8836 1.50649 12.7161 1.84395 12.676L1.99995 12.6666H3.33328ZM25.9999 12.6666C26.3398 12.667 26.6667 12.7971 26.9138 13.0304C27.1609 13.2637 27.3096 13.5826 27.3295 13.9218C27.3494 14.2611 27.239 14.5951 27.0209 14.8557C26.8028 15.1163 26.4934 15.2838 26.1559 15.324L25.9999 15.3333H24.6666C24.3268 15.3329 23.9999 15.2028 23.7528 14.9695C23.5057 14.7362 23.357 14.4174 23.3371 14.0781C23.3171 13.7388 23.4275 13.4048 23.6456 13.1442C23.8638 12.8836 24.1732 12.7161 24.5106 12.676L24.6666 12.6666H25.9999ZM6.28395 4.41329L6.40928 4.52396L7.34261 5.45729C7.58174 5.69724 7.72058 6.01921 7.73092 6.3578C7.74126 6.6964 7.62233 7.02624 7.39828 7.28033C7.17424 7.53442 6.86188 7.6937 6.52465 7.72582C6.18742 7.75795 5.8506 7.66051 5.58261 7.45329L5.45728 7.34263L4.52395 6.40929C4.29473 6.17953 4.15719 5.87406 4.1371 5.55014C4.11701 5.22621 4.21576 4.90609 4.41483 4.64977C4.6139 4.39344 4.89962 4.21853 5.21844 4.15781C5.53725 4.0971 5.86727 4.15475 6.14661 4.31996L6.28395 4.41329ZM23.4759 4.52396C23.7055 4.75355 23.8434 5.05902 23.8638 5.38305C23.8842 5.70709 23.7856 6.02742 23.5866 6.28396L23.4759 6.40929L22.5426 7.34263C22.3027 7.58176 21.9807 7.72059 21.6421 7.73093C21.3035 7.74127 20.9737 7.62234 20.7196 7.39829C20.4655 7.17425 20.3062 6.86189 20.2741 6.52466C20.242 6.18743 20.3394 5.85061 20.5466 5.58263L20.6573 5.45729L21.5906 4.52396C21.8407 4.274 22.1797 4.13358 22.5333 4.13358C22.8868 4.13358 23.2259 4.274 23.4759 4.52396ZM13.9999 0.666626C14.3265 0.666669 14.6417 0.786568 14.8858 1.00358C15.1298 1.22059 15.2857 1.51962 15.3239 1.84396L15.3333 1.99996V3.33329C15.3329 3.67313 15.2028 4 14.9695 4.24712C14.7362 4.49423 14.4173 4.64294 14.0781 4.66286C13.7388 4.68277 13.4048 4.57239 13.1442 4.35427C12.8836 4.13615 12.7161 3.82675 12.6759 3.48929L12.6666 3.33329V1.99996C12.6666 1.64634 12.8071 1.3072 13.0571 1.05715C13.3072 0.807102 13.6463 0.666626 13.9999 0.666626ZM13.9999 7.33329C15.3062 7.33322 16.5837 7.71688 17.6737 8.43663C18.7638 9.15637 19.6184 10.1805 20.1314 11.3818C20.6444 12.5831 20.7931 13.9086 20.5592 15.1937C20.3254 16.4788 19.7191 17.6669 18.8157 18.6104C17.9124 19.5539 16.7517 20.2113 15.478 20.5008C14.2042 20.7903 12.8735 20.6993 11.6511 20.239C10.4286 19.7787 9.36833 18.9694 8.60189 17.9116C7.83545 16.8539 7.39664 15.5943 7.33995 14.2893L7.33328 14L7.33995 13.7106C7.41451 11.9943 8.14876 10.373 9.38958 9.18484C10.6304 7.99668 12.282 7.33339 13.9999 7.33329Z" fill="white"/>
</svg>
